<mxfile host="app.diagrams.net" modified="2023-08-19T09:27:27.598Z" agent="Mozilla/5.0 (Windows NT 10.0; Win64; x64) AppleWebKit/537.36 (KHTML, like Gecko) Chrome/115.0.0.0 Safari/537.36" version="21.3.7" etag="u7osoqDVDZTEmM4eWqan" type="github">
  <diagram name="Page-1" id="RY7OJB8418LPfpHWDn-s">
    <mxGraphModel>
      <root>
        <mxCell id="0" />
        <mxCell id="1" parent="0" />
      </root>
    </mxGraphModel>
  </diagram>
</mxfile>
